:SAMPLES-PER-SECOND 30
:FULLY-SPECIFIED
:DEGREES
115
root  -4.411555463 39.37755495 8.001889206 45.18701172 -76.56999969 -47.43399048
lowerback  11.82019997 3.886640072 -2.303550005
upperback  3.444000006 4.629779816 -2.235369921
thorax  -2.999670029 2.236850023 -1.685909986
lowerneck  0.6142100096 6.992770195 -5.34623003
upperneck  11.11079979 8.789759636 6.211299896
head  2.942719936 4.279419899 3.140429974
lclavicle  0 -9.442270133e-015 7.951389973e-016
lhumerus  -10.73209953 -7.277180195 72.66570282
lradius  2.787149489e-031 -2.168096346e-031 142.1210022
lwrist  0 -0 15.49419975
lhand  -1.496451383e-031 -27.76390076 20.11240005
lfingers  90 7.125020027 -90
lthumb  89.89689403 5.08795885 91.16245106
rclavicle  0 -9.442270133e-015 7.951389973e-016
rhumerus  -16.80830002 10.0607996 -78.48940277
rradius  -2.730456635e-031 2.239073604e-031 140.6470032
rwrist  7.062250077e-031 -3.531125038e-031 -2.200400114
rhand  -7.920061211e-032 -33.2840004 9.303460121
rfingers  -90 -7.125020027 -90
rthumb  -92.93752616 -24.25625642 -97.11982154
rfemur  -3.093620062 13.19260025 11.12829971
rtibia  -0 0 46.23389816
rfoot  -4.633026405e-032 -4.16203022 0.07121799886
rtoes  5.373923086 19.29304026 -105.8922705
lfemur  -27.96730042 -0.8220480084 3.465899944
ltibia  -0 0 53.11769867
lfoot  5.046579923e-032 -10.27519989 -0.4518600106
ltoes  -4.250644065 -19.5611806 -102.515957
116
root  -4.278600122 39.13911234 7.938822048 49.30300903 -78.07900238 -51.95199585
lowerback  12.02740002 4.127319813 -2.382750034
upperback  3.422699928 4.919020176 -2.305330038
thorax  -3.132189989 2.377110004 -1.773020029
lowerneck  0.833081007 7.090159893 -4.810639858
upperneck  11.00380039 8.904620171 6.114649773
head  2.885090113 4.351409912 2.998239994
lclavicle  0 -9.442270133e-015 7.951389973e-016
lhumerus  -11.07310009 -7.320119858 72.44259644
lradius  2.766975156e-031 -2.193784977e-031 141.5910034
lwrist  -7.062250077e-031 -0 15.92630005
lhand  -1.496451383e-031 -27.76390076 20.11240005
lfingers  90 7.125020027 -90
lthumb  89.89689403 5.08795885 91.16245106
rclavicle  0 -9.442270133e-015 7.951389973e-016
rhumerus  -15.07289982 10.07219982 -78.69860077
rradius  -2.745672567e-031 2.220388748e-031 141.0379944
rwrist  1.059337512e-030 -3.531125038e-031 -1.982900023
rhand  -7.920061211e-032 -33.2840004 9.303460121
rfingers  -90 -7.125020027 -90
rthumb  -92.93752616 -24.25625642 -97.11982154
rfemur  -3.595370054 13.40779972 10.63619995
rtibia  -0 0 47.63579941
rfoot  -4.42155493e-032 -3.370579958 0.2298379987
rtoes  5.373923086 19.29304026 -105.8922705
lfemur  -27.10090065 -0.8453940153 3.22555995
ltibia  -0 0 53.54850006
lfoot  5.066483176e-032 -11.45040035 0.7198820114
ltoes  -4.250644065 -19.5611806 -102.515957
117
root  -4.142355731 38.91155513 7.860911362 53.90301514 -79.54799652 -56.73199463
lowerback  12.09519958 4.269959927 -2.682219982
upperback  3.378079891 5.054570198 -2.441849947
thorax  -3.227509975 2.442120075 -1.77670002
lowerneck  0.8640959859 7.25094986 -4.299600124
upperneck  10.96329975 9.115719795 5.996650219
head  2.88045001 4.471189976 2.867589951
lclavicle  0 -9.442270133e-015 7.951389973e-016
lhumerus  -11.39729977 -7.152100086 72.04070282
lradius  2.747260755e-031 -2.2184234e-031 141.0789948
lwrist  -1.412450015e-030 -0 16.87940025
lhand  -1.496451383e-031 -27.76390076 20.11240005
lfingers  90 7.125020027 -90
lthumb  89.89689403 5.08795885 91.16245106
rclavicle  0 -9.442270133e-015 7.951389973e-016
rhumerus  -13.19320011 10.35719967 -79.08709717
rradius  -2.751785292e-031 2.212808565e-031 141.1959991
rwrist  1.059337512e-030 -3.531125038e-031 -1.984590054
rhand  -7.920061211e-032 -33.2840004 9.303460121
rfingers  -90 -7.125020027 -90
rthumb  -92.93752616 -24.25625642 -97.11982154
rfemur  -4.233160019 13.58310032 10.05799961
rtibia  -0 0 48.76490021
rfoot  -4.418426399e-032 -2.591880083 -0.8449040055
rtoes  5.373923086 19.29304026 -105.8922705
lfemur  -26.64850044 -0.7983009815 2.879189968
ltibia  -0 0 54.13010025
lfoot  5.65115426e-032 -12.49139977 1.603180051
ltoes  -4.250644065 -19.5611806 -102.515957
118
root  -3.991266686 38.67555453 7.762489169 59.47799683 -80.9910965 -62.32400513
lowerback  12.06070042 4.435080051 -3.31904006
upperback  3.344549894 5.188549995 -2.476340055
thorax  -3.295389891 2.507580042 -1.480479956
lowerneck  0.8179759979 7.401480198 -3.974420071
upperneck  10.89579964 9.330920219 5.79185009
head  2.877990007 4.584889889 2.744440079
lclavicle  0 -9.442270133e-015 7.951389973e-016
lhumerus  -11.65240002 -6.939380169 71.84089661
lradius  2.726348903e-031 -2.244073461e-031 140.5420074
lwrist  -7.062250077e-031 -1.765562519e-031 17.88640022
lhand  -1.496451383e-031 -27.76390076 20.11240005
lfingers  90 7.125020027 -90
lthumb  89.89689403 5.08795885 91.16245106
rclavicle  0 -9.442270133e-015 7.951389973e-016
rhumerus  -11.25889969 10.86550045 -79.1588974
rradius  -2.752403367e-031 2.212039724e-031 141.2120056
rwrist  3.531125038e-031 -0 -2.433670044
rhand  -7.920061211e-032 -33.2840004 9.303460121
rfingers  -90 -7.125020027 -90
rthumb  -92.93752616 -24.25625642 -97.11982154
rfemur  -4.981070042 13.67870045 9.388219833
rtibia  -0 0 49.58800125
rfoot  -4.421361915e-032 -3.32784009 -2.462769985
rtoes  5.373923086 19.29304026 -105.8922705
lfemur  -26.54660034 -0.7130990028 2.51274991
ltibia  -0 0 54.79800034
lfoot  6.806714549e-032 -13.41989994 1.903380036
ltoes  -4.250644065 -19.5611806 -102.515957
119
root  -3.85135553 38.43622283 7.643911407 65.70401001 -82.290802 -68.69198608
lowerback  12.08930016 4.516520023 -4.080580235
upperback  3.390399933 5.197500229 -2.421839952
thorax  -3.334769964 2.510109901 -1.00635004
lowerneck  0.7897670269 7.635799885 -4.059350014
upperneck  10.7524004 9.661439896 5.707210064
head  2.81678009 4.744679928 2.727099895
lclavicle  0 -9.442270133e-015 7.951389973e-016
lhumerus  -12.03380013 -6.750400066 71.82610321
lradius  2.703809946e-031 -2.271179388e-031 139.9700012
lwrist  -7.062250077e-031 -8.827812596e-032 18.14520073
lhand  -1.496451383e-031 -27.76390076 20.11240005
lfingers  90 7.125020027 -90
lthumb  89.89689403 5.08795885 91.16245106
rclavicle  0 -9.442270133e-015 7.951389973e-016
rhumerus  -9.378829956 11.84370041 -79.11930084
rradius  -2.746796324e-031 2.218998421e-031 141.0670013
rwrist  7.062250077e-031 -0 -3.04031992
rhand  -7.920061211e-032 -33.2840004 9.303460121
rfingers  -90 -7.125020027 -90
rthumb  -92.93752616 -24.25625642 -97.11982154
rfemur  -5.314559937 13.7105999 8.786870003
rtibia  -0 0 50.13790131
rfoot  -4.442034959e-032 -6.451350212 -4.913899899
rtoes  5.373923086 19.29304026 -105.8922705
lfemur  -26.39249992 -0.5056599975 2.097160101
ltibia  -0 0 55.46620178
lfoot  4.552107009e-032 -14.15439987 2.205960035
ltoes  -4.250644065 -19.5611806 -102.515957
